<svg width="117" height="54" viewBox="0 0 117 54" fill="none" xmlns="http://www.w3.org/2000/svg">
<path d="M70.1035 43.9516C70.1035 44.3492 69.8249 44.5461 69.4678 44.6287C65.893 45.2074 63.668 44.4988 62.5536 42.1763C62.4202 41.9007 62.0434 41.881 61.8669 42.133C60.6308 43.9123 58.0252 45.109 55.1685 45.109C51.1306 45.109 47.9992 43.2824 47.9992 38.7909C47.9992 34.5394 51.8409 32.5909 55.604 32.6342C57.5033 32.6342 59.4026 33.1183 60.8309 33.8978C61.1017 34.0474 61.4274 33.8584 61.4274 33.5474V32.5515C61.4274 30.3667 59.3672 29.3747 56.9108 29.3747C54.7329 29.3747 52.3942 30.1305 50.338 31.5989C50.1417 31.7169 49.7454 31.9571 49.7454 31.402V26.4774C49.7454 26.2806 49.8239 26.0799 50.024 26.0011C51.7663 24.9265 54.3797 24.0132 58.2214 24.0132C62.4594 24.0132 66.6189 26.0799 66.6189 31.5241V37.2438C66.6189 38.4759 66.8975 39.5467 68.7575 39.5467H69.4717C69.8209 39.5467 70.1074 39.8301 70.1074 40.1844V43.9516H70.1035ZM61.3921 37.8737C61.3921 36.6415 58.6217 36.0865 57.1148 36.0865C54.6191 36.0865 53.3124 37.0391 53.3124 38.4326C53.3124 39.9403 54.8192 40.8182 57.0756 40.8182C59.1357 40.8182 61.3921 39.7868 61.3921 38.472V37.8737Z" fill="#0F4C36"/>
<path d="M82.1072 45.1041C74.5808 45.1041 71.3749 40.0969 71.3749 34.5739C71.3749 29.051 74.5808 24.0044 82.1072 24.0044C89.6728 24.0044 92.8395 29.051 92.8395 34.5739C92.8395 40.0969 89.6728 45.1041 82.1072 45.1041ZM82.1464 29.2518C78.7011 29.2518 76.3624 31.2003 76.3624 34.5739C76.3624 37.9515 78.6972 39.8961 82.1464 39.8961C85.5133 39.8961 87.8481 37.9475 87.8481 34.5739C87.852 31.1964 85.5133 29.2518 82.1464 29.2518Z" fill="#0F4C36"/>
<path d="M106.268 45.1041C98.7413 45.1041 95.5353 40.0969 95.5353 34.5739C95.5353 29.051 98.7413 24.0044 106.268 24.0044C113.833 24.0044 117 29.051 117 34.5739C117 40.0969 113.833 45.1041 106.268 45.1041ZM106.307 29.2518C102.862 29.2518 100.523 31.2003 100.523 34.5739C100.523 37.9515 102.858 39.8961 106.307 39.8961C109.674 39.8961 112.009 37.9475 112.009 34.5739C112.009 31.1964 109.674 29.2518 106.307 29.2518Z" fill="#0F4C36"/>
<path d="M21.4647 25.2089V34.5739C21.4647 40.0968 18.294 45.108 10.7363 45.108C3.20596 45.108 0 40.0968 0 34.5739V25.2089C0 24.831 0.310001 24.52 0.686712 24.52H4.68141C5.06205 24.52 5.37205 24.831 5.37205 25.2089V34.5739C5.37205 37.9553 7.33016 39.9 10.7716 39.9C14.1345 39.9 16.1005 37.9553 16.1005 34.5739V25.2089C16.1005 24.831 16.4026 24.52 16.7872 24.52H20.7819C21.1586 24.52 21.4647 24.831 21.4647 25.2089Z" fill="#0F4C36"/>
<path d="M10.6146 25.5754C10.0927 25.4061 9.68067 24.9534 9.49232 24.3747C9.34712 23.9338 9.17054 23.5008 8.98219 23.0796C8.66041 22.3553 8.15421 21.8514 7.5342 21.3672C6.73369 20.7413 5.94496 20.0997 5.11698 19.5092C4.75204 19.2494 4.31254 19.029 3.99469 18.714C2.46038 17.6866 1.26747 16.1199 0.808351 14.3169C0.604299 13.5178 0.541514 12.6321 0.918225 11.8999C1.29494 11.1677 2.22886 10.6796 2.97836 11.026C3.54343 11.2858 3.83381 11.9078 4.06925 12.4825C4.4852 13.5178 4.909 14.5571 5.49369 15.5097C5.88217 16.1435 6.18432 16.8324 6.63167 17.4268C7.04762 17.9858 7.82459 18.7298 8.5937 18.4306C8.9351 18.2968 9.05674 17.9622 9.02143 17.6079C8.98219 17.2496 8.80953 16.8914 8.65256 16.5686C8.22092 15.6868 7.63231 14.9035 7.07901 14.1004C7.03585 14.0374 6.99268 13.9745 6.94952 13.9075C6.14116 12.5691 5.32888 11.2228 4.66571 9.80569C3.85343 8.09725 3.12748 5.75108 4.11242 3.91667C5.27786 1.74764 7.21635 3.97965 7.72256 5.34168C8.41712 7.21546 8.42497 9.22703 8.79383 11.1677C8.93117 11.8881 9.0332 12.6912 9.48839 13.2934C9.82194 13.7343 10.6342 14.1083 11.1443 13.7619C11.423 13.5729 11.5054 13.262 11.47 12.9392C11.3131 11.6086 10.9992 10.3017 10.8579 8.96328C10.6185 6.72734 10.3478 4.09774 11.0698 1.93266C11.5093 0.861928 12.6747 -0.0001688 13.7852 0.314752C14.6446 0.558816 15.2058 1.43666 15.3549 2.31844C15.6296 3.95996 15.0331 5.56213 14.4759 7.07769C14.005 8.35705 13.0318 10.3883 13.7421 11.7346C13.797 11.8409 13.8716 11.9432 13.9658 12.0141C14.1855 12.1794 14.4916 12.1715 14.7584 12.0967C15.7394 11.8133 16.3516 10.7111 16.7597 9.849C17.3287 8.64442 17.8898 7.43197 18.5373 6.26676C19.1887 5.08974 20.256 2.70422 21.9434 2.97584C24.4469 3.37736 23.2501 6.60137 22.5241 8.03426C21.2096 10.6324 19.0553 12.699 16.6341 14.254C15.8454 14.7618 15.0135 15.2027 14.158 15.5845C13.6204 15.8207 12.2627 16.5096 13.0083 17.2733C13.6165 17.8992 14.625 17.5095 15.3274 17.2851C16.3869 16.9465 17.3954 16.4741 18.3803 15.9663C19.8754 15.1908 21.4097 14.3327 22.7007 13.2029C23.8426 12.203 24.804 10.5536 26.4325 10.3411C27.182 10.2426 27.9197 10.5103 28.4024 11.1047C29.9563 13.01 27.9001 15.1987 26.4247 16.3246C24.9767 17.4268 23.2736 18.1983 21.4882 18.5448C19.5693 18.9187 17.6308 19.0526 15.7865 19.7611C15.7237 19.7848 15.6649 19.8084 15.606 19.832C14.8369 20.139 14.0639 20.6705 13.6518 21.4105C13.4203 21.8278 13.3457 22.253 13.3261 22.7253C13.2712 23.9024 12.8395 25.1502 11.627 25.5636C11.2542 25.6777 10.9168 25.6738 10.6146 25.5754Z" fill="#0F4C36"/>
<path d="M39.6095 41.0891C38.6207 43.9115 35.968 45.1397 32.9543 45.1397C28.7556 45.1397 24.5176 42.1992 24.5176 34.8497C24.5176 27.3427 29.4698 24.0439 33.5861 24.0439C36.6743 24.0439 39.5664 25.5556 40.4375 28.693H40.7946L41.7835 25.0793C41.9404 24.6029 42.2583 24.5242 42.7331 24.5242H46.3354C46.7317 24.5242 47.0888 24.9612 46.9279 25.4375L43.8789 34.8143V36.5227C45.1464 38.8689 45.7389 41.2505 45.7389 43.3959C45.7389 48.9582 41.8973 53.249 35.3245 53.249C31.3258 53.249 28.9479 52.4538 26.4129 51.2217C26.1735 51.1429 26.0558 50.9422 26.0558 50.706L26.1343 45.7775C26.1343 45.5806 26.2128 45.4586 26.4129 45.4192L27.6411 45.1004C27.7589 45.061 27.9197 45.1004 27.9982 45.1791C29.7798 47.4426 32.2755 48.2771 34.7712 48.1984C37.9771 48.0803 40.4728 46.0924 40.4728 43.2305C40.4728 42.6755 40.3944 42.0771 39.998 41.0851H39.6095V41.0891ZM39.6488 34.4167C39.6488 31.2793 37.4709 29.2913 34.6966 29.2913C31.8438 29.2913 29.7444 31.5942 29.7444 34.5741C29.7444 37.8729 31.8831 39.7782 34.6966 39.7782C37.7103 39.7782 39.6488 37.3179 39.6488 34.4167Z" fill="#0F4C36"/>
</svg>
